<svg width="832" height="866" viewBox="0 0 832 866" fill="none" xmlns="http://www.w3.org/2000/svg">
<path d="M417.858 14.3636V58H412.574V19.9034H412.318L401.665 26.9773V21.608L412.574 14.3636H417.858ZM430.408 58V54.1648L444.811 38.3977C446.501 36.5511 447.893 34.946 448.987 33.5824C450.081 32.2045 450.891 30.9119 451.416 29.7045C451.956 28.483 452.226 27.2045 452.226 25.8693C452.226 24.3352 451.857 23.0071 451.118 21.8849C450.393 20.7628 449.399 19.8963 448.135 19.2855C446.871 18.6747 445.45 18.3693 443.874 18.3693C442.197 18.3693 440.734 18.7173 439.484 19.4134C438.249 20.0952 437.29 21.054 436.608 22.2898C435.94 23.5256 435.607 24.9744 435.607 26.6364H430.578C430.578 24.0795 431.168 21.8352 432.347 19.9034C433.526 17.9716 435.131 16.4659 437.162 15.3864C439.207 14.3068 441.501 13.767 444.044 13.767C446.601 13.767 448.866 14.3068 450.841 15.3864C452.815 16.4659 454.364 17.9219 455.486 19.7543C456.608 21.5866 457.169 23.625 457.169 25.8693C457.169 27.4744 456.878 29.044 456.295 30.5781C455.727 32.098 454.733 33.7955 453.312 35.6705C451.906 37.5312 449.953 39.804 447.453 42.4886L437.652 52.9716V53.3125H457.936V58H430.408Z" fill="black"/>
<path d="M626.061 70.8792L604.243 108.669L599.667 106.027L618.715 73.0348L618.494 72.9069L605.731 73.7064L608.415 69.0564L621.485 68.2372L626.061 70.8792Z" fill="black"/>
<path d="M733.518 232.957L736.84 231.04L757.696 235.63C760.14 236.171 762.226 236.574 763.954 236.839C765.694 237.097 767.219 237.152 768.527 237.004C769.855 236.86 771.097 236.455 772.253 235.787C773.582 235.02 774.547 234.036 775.15 232.835C775.759 231.647 776.013 230.353 775.91 228.952C775.806 227.552 775.361 226.169 774.572 224.804C773.734 223.352 772.701 222.259 771.474 221.525C770.265 220.795 768.955 220.444 767.544 220.472C766.14 220.512 764.719 220.947 763.279 221.778L760.765 217.423C762.979 216.145 765.218 215.533 767.48 215.588C769.743 215.643 771.849 216.281 773.8 217.5C775.757 218.732 777.372 220.448 778.643 222.65C779.922 224.865 780.587 227.097 780.639 229.346C780.692 231.596 780.205 233.665 779.179 235.553C778.153 237.441 776.668 238.946 774.725 240.068C773.335 240.871 771.83 241.403 770.21 241.666C768.61 241.934 766.643 241.921 764.309 241.629C761.994 241.341 759.049 240.786 755.474 239.964L741.495 236.717L741.2 236.887L751.342 254.454L747.282 256.798L733.518 232.957Z" fill="black"/>
<path d="M812.761 455.097C809.949 455.097 807.442 454.614 805.24 453.648C803.053 452.682 801.313 451.339 800.02 449.621C798.741 447.888 798.045 445.878 797.932 443.591H803.301C803.415 444.997 803.898 446.212 804.75 447.234C805.602 448.243 806.717 449.024 808.095 449.578C809.473 450.132 811 450.409 812.676 450.409C814.551 450.409 816.213 450.082 817.662 449.429C819.111 448.776 820.247 447.866 821.071 446.702C821.895 445.537 822.307 444.188 822.307 442.653C822.307 441.048 821.909 439.635 821.114 438.413C820.318 437.178 819.153 436.212 817.619 435.516C816.085 434.82 814.21 434.472 811.994 434.472H808.5V429.784H811.994C813.727 429.784 815.247 429.472 816.554 428.847C817.875 428.222 818.905 427.341 819.643 426.205C820.396 425.068 820.773 423.733 820.773 422.199C820.773 420.722 820.446 419.436 819.793 418.342C819.139 417.249 818.216 416.396 817.023 415.786C815.844 415.175 814.452 414.869 812.847 414.869C811.341 414.869 809.92 415.146 808.585 415.7C807.264 416.24 806.185 417.028 805.347 418.065C804.509 419.088 804.054 420.324 803.983 421.773H798.869C798.955 419.486 799.643 417.483 800.936 415.764C802.229 414.031 803.919 412.682 806.007 411.716C808.109 410.75 810.418 410.267 812.932 410.267C815.631 410.267 817.946 410.814 819.878 411.908C821.81 412.987 823.294 414.415 824.331 416.19C825.368 417.966 825.886 419.884 825.886 421.943C825.886 424.401 825.24 426.496 823.947 428.229C822.669 429.962 820.929 431.162 818.727 431.83V432.17C821.483 432.625 823.635 433.797 825.183 435.686C826.732 437.561 827.506 439.884 827.506 442.653C827.506 445.026 826.859 447.156 825.567 449.045C824.288 450.92 822.541 452.398 820.325 453.477C818.109 454.557 815.588 455.097 812.761 455.097Z" fill="black"/>
<path d="M743.874 643.801V639.455L763.05 609.114H766.203V615.847H764.072L749.584 638.773V639.114H775.408V643.801H743.874ZM764.413 652.75V642.48V640.456V609.114H769.442V652.75H764.413Z" fill="black"/>
<path d="M613.403 798.476C610.903 798.476 608.652 797.979 606.649 796.984C604.646 795.99 603.041 794.626 601.834 792.893C600.626 791.16 599.966 789.186 599.852 786.97H604.966C605.165 788.944 606.06 790.578 607.651 791.871C609.256 793.149 611.173 793.788 613.403 793.788C615.193 793.788 616.784 793.369 618.176 792.531C619.582 791.693 620.683 790.542 621.479 789.079C622.288 787.602 622.693 785.933 622.693 784.072C622.693 782.169 622.274 780.471 621.436 778.98C620.612 777.474 619.476 776.288 618.027 775.422C616.578 774.555 614.923 774.115 613.062 774.101C611.727 774.086 610.357 774.292 608.95 774.719C607.544 775.131 606.386 775.663 605.477 776.317L600.534 775.72L603.176 754.243H625.847V758.93H607.608L606.074 771.8H606.33C607.224 771.089 608.347 770.5 609.696 770.031C611.045 769.562 612.452 769.328 613.915 769.328C616.585 769.328 618.964 769.967 621.053 771.246C623.155 772.51 624.803 774.243 625.996 776.444C627.203 778.646 627.807 781.16 627.807 783.987C627.807 786.771 627.182 789.257 625.932 791.444C624.696 793.618 622.991 795.336 620.818 796.601C618.645 797.851 616.173 798.476 613.403 798.476Z" fill="black"/>
<path d="M418.006 851.597C416.216 851.568 414.426 851.227 412.636 850.574C410.847 849.92 409.213 848.82 407.736 847.271C406.259 845.709 405.072 843.599 404.178 840.943C403.283 838.273 402.835 834.92 402.835 830.886C402.835 827.023 403.197 823.599 403.922 820.616C404.646 817.619 405.697 815.098 407.075 813.053C408.453 810.993 410.115 809.43 412.061 808.365C414.021 807.3 416.23 806.767 418.688 806.767C421.131 806.767 423.304 807.257 425.207 808.237C427.125 809.203 428.688 810.553 429.895 812.286C431.102 814.018 431.884 816.014 432.239 818.273H427.04C426.557 816.312 425.619 814.686 424.227 813.393C422.835 812.101 420.989 811.455 418.688 811.455C415.307 811.455 412.643 812.925 410.697 815.865C408.766 818.805 407.793 822.932 407.778 828.244H408.119C408.915 827.037 409.859 826.007 410.953 825.155C412.061 824.288 413.283 823.621 414.618 823.152C415.953 822.683 417.366 822.449 418.858 822.449C421.358 822.449 423.645 823.074 425.719 824.324C427.793 825.56 429.455 827.271 430.705 829.459C431.955 831.632 432.58 834.125 432.58 836.938C432.58 839.636 431.976 842.108 430.768 844.352C429.561 846.582 427.864 848.358 425.676 849.679C423.503 850.986 420.946 851.625 418.006 851.597ZM418.006 846.909C419.795 846.909 421.401 846.462 422.821 845.567C424.256 844.672 425.385 843.472 426.209 841.966C427.047 840.46 427.466 838.784 427.466 836.938C427.466 835.134 427.061 833.493 426.251 832.016C425.456 830.524 424.355 829.338 422.949 828.457C421.557 827.577 419.966 827.136 418.176 827.136C416.827 827.136 415.57 827.406 414.405 827.946C413.24 828.472 412.217 829.196 411.337 830.119C410.47 831.043 409.788 832.101 409.291 833.294C408.794 834.473 408.545 835.716 408.545 837.023C408.545 838.756 408.95 840.375 409.76 841.881C410.584 843.386 411.706 844.601 413.126 845.524C414.561 846.447 416.188 846.909 418.006 846.909Z" fill="black"/>
<path d="M204.631 797.879L224.148 759.271V758.93H201.648V754.243H229.602V759.186L210.17 797.879H204.631Z" fill="black"/>
<path d="M72.1152 653.347C69.1891 653.347 66.6039 652.828 64.3595 651.791C62.1294 650.74 60.3894 649.298 59.1394 647.466C57.8894 645.619 57.2715 643.517 57.2857 641.159C57.2715 639.312 57.6337 637.608 58.3723 636.045C59.111 634.469 60.1195 633.155 61.3979 632.104C62.6905 631.038 64.1323 630.364 65.7232 630.08V629.824C63.6351 629.284 61.9732 628.112 60.7374 626.308C59.5016 624.49 58.8908 622.423 58.905 620.108C58.8908 617.892 59.4519 615.911 60.5882 614.163C61.7246 612.416 63.2871 611.038 65.2757 610.03C67.2786 609.021 69.5584 608.517 72.1152 608.517C74.6436 608.517 76.9022 609.021 78.8908 610.03C80.8794 611.038 82.4419 612.416 83.5783 614.163C84.7289 615.911 85.3113 617.892 85.3255 620.108C85.3113 622.423 84.6792 624.49 83.4292 626.308C82.1934 628.112 80.5527 629.284 78.5073 629.824V630.08C80.084 630.364 81.5044 631.038 82.7686 632.104C84.0328 633.155 85.0414 634.469 85.7942 636.045C86.547 637.608 86.9306 639.312 86.9448 641.159C86.9306 643.517 86.2914 645.619 85.0272 647.466C83.7772 649.298 82.0371 650.74 79.807 651.791C77.5911 652.828 75.0272 653.347 72.1152 653.347ZM72.1152 648.659C74.0897 648.659 75.7942 648.339 77.2289 647.7C78.6635 647.061 79.7715 646.159 80.5527 644.994C81.334 643.83 81.7317 642.466 81.7459 640.903C81.7317 639.256 81.3056 637.8 80.4675 636.536C79.6294 635.271 78.486 634.277 77.0371 633.553C75.6024 632.828 73.9618 632.466 72.1152 632.466C70.2544 632.466 68.5925 632.828 67.1294 633.553C65.6806 634.277 64.5371 635.271 63.699 636.536C62.8752 637.8 62.4703 639.256 62.4845 640.903C62.4703 642.466 62.8468 643.83 63.6138 644.994C64.3951 646.159 65.5101 647.061 66.959 647.7C68.4078 648.339 70.1266 648.659 72.1152 648.659ZM72.1152 627.949C73.6777 627.949 75.0627 627.636 76.2701 627.011C77.4917 626.386 78.4505 625.513 79.1465 624.391C79.8425 623.268 80.1976 621.955 80.2118 620.449C80.1976 618.972 79.8496 617.686 79.1678 616.592C78.486 615.484 77.5414 614.632 76.334 614.036C75.1266 613.425 73.7203 613.119 72.1152 613.119C70.4817 613.119 69.0541 613.425 67.8326 614.036C66.611 614.632 65.6664 615.484 64.9988 616.592C64.3311 617.686 64.0044 618.972 64.0186 620.449C64.0044 621.955 64.3382 623.268 65.0201 624.391C65.7161 625.513 66.6749 626.386 67.8965 627.011C69.1181 627.636 70.5243 627.949 72.1152 627.949Z" fill="black"/>
<path d="M18.4091 410.767C20.1989 410.781 21.9886 411.122 23.7784 411.79C25.5682 412.457 27.2017 413.565 28.679 415.114C30.1563 416.648 31.3423 418.743 32.2372 421.399C33.1321 424.055 33.5795 427.386 33.5795 431.392C33.5795 435.27 33.2102 438.714 32.4716 441.726C31.7472 444.723 30.696 447.251 29.3182 449.311C27.9545 451.371 26.2926 452.933 24.3324 453.999C22.3864 455.064 20.1847 455.597 17.7273 455.597C15.2841 455.597 13.1037 455.114 11.1861 454.148C9.28267 453.168 7.72017 451.811 6.49858 450.078C5.29119 448.331 4.51705 446.307 4.17614 444.006H9.375C9.84375 446.009 10.7741 447.663 12.1662 448.97C13.5724 450.263 15.4261 450.909 17.7273 450.909C21.0938 450.909 23.75 449.439 25.696 446.499C27.6563 443.558 28.6364 439.403 28.6364 434.034H28.2955C27.5 435.227 26.5554 436.257 25.4616 437.124C24.3679 437.99 23.1534 438.658 21.8182 439.126C20.483 439.595 19.0625 439.83 17.5568 439.83C15.0568 439.83 12.7628 439.212 10.6747 437.976C8.60085 436.726 6.93892 435.014 5.68892 432.841C4.45313 430.653 3.83523 428.153 3.83523 425.341C3.83523 422.67 4.43182 420.227 5.625 418.011C6.83239 415.781 8.52273 414.006 10.696 412.685C12.8835 411.364 15.4545 410.724 18.4091 410.767ZM18.4091 415.455C16.6193 415.455 15.0071 415.902 13.5724 416.797C12.152 417.678 11.0227 418.871 10.1847 420.376C9.3608 421.868 8.94886 423.523 8.94886 425.341C8.94886 427.159 9.34659 428.814 10.142 430.305C10.9517 431.783 12.0526 432.962 13.4446 433.842C14.8509 434.709 16.4489 435.142 18.2386 435.142C19.5881 435.142 20.8452 434.879 22.0099 434.354C23.1747 433.814 24.1903 433.082 25.0568 432.159C25.9375 431.222 26.6264 430.163 27.1236 428.984C27.6207 427.791 27.8693 426.548 27.8693 425.256C27.8693 423.551 27.4574 421.953 26.6335 420.462C25.8239 418.97 24.7017 417.763 23.267 416.839C21.8466 415.916 20.2273 415.455 18.4091 415.455Z" fill="black"/>
<path d="M46.3682 236.564L84.1584 258.383L81.5164 262.959L48.5238 243.91L48.3959 244.132L49.1954 256.895L44.5454 254.21L43.7262 241.141L46.3682 236.564ZM98.0664 235.486C96.4613 238.267 94.3376 240.198 91.6953 241.28C89.0406 242.355 85.9696 242.575 82.4821 241.94C78.9824 241.297 75.1782 239.789 71.0695 237.417C66.9854 235.059 63.7962 232.529 61.5019 229.827C59.2025 227.105 57.8547 224.326 57.4585 221.489C57.0572 218.633 57.652 215.827 59.2429 213.072C60.8338 210.316 62.9628 208.404 65.6297 207.336C68.2915 206.249 71.3722 206.026 74.8719 206.669C78.3665 207.292 82.1558 208.783 86.2399 211.141C90.3486 213.513 93.5562 216.054 95.8628 218.763C98.1571 221.466 99.5023 224.235 99.8984 227.072C100.282 229.901 99.6716 232.706 98.0664 235.486ZM94.007 233.143C95.5979 230.387 95.5051 227.48 93.7287 224.42C91.9522 221.361 88.6037 218.411 83.6831 215.57C80.4109 213.68 77.4222 212.422 74.717 211.795C72.0189 211.156 69.6906 211.14 67.7322 211.748C65.781 212.344 64.2797 213.552 63.2286 215.373C61.6519 218.104 61.7667 221.016 63.5729 224.109C65.3669 227.195 68.718 230.155 73.6263 232.989C76.8985 234.878 79.8775 236.138 82.5633 236.771C85.2491 237.403 87.5615 237.417 89.5005 236.815C91.4466 236.2 92.9487 234.976 94.007 233.143Z" fill="black"/>
<path d="M207.425 70.0213L229.243 107.811L224.667 110.454L205.619 77.4609L205.397 77.5888L199.708 89.0416L197.023 84.3916L202.849 72.6633L207.425 70.0213ZM231.579 56.076L253.397 93.8662L248.821 96.5082L229.773 63.5156L229.551 63.6434L223.862 75.0963L221.177 70.4463L227.003 58.718L231.579 56.076Z" fill="black"/>
</svg>
